<svg xmlns="http://www.w3.org/2000/svg" width="80.512" height="45.053" viewBox="0 0 80.512 45.053">
  <path id="XMLID_189_" d="M30.728,30.617l-.169,3.434L28.7,31.18l-3.322.9,2.139-2.7L25.6,26.507l3.209,1.239,2.139-2.7-.169,3.434,3.209,1.239Zm-2.252-17.96-2.759,2.984v10.3L28.476,23.3ZM13.5,30.28l2.759,2.646V7.984L13.5,5Zm6.7-19.2L17.441,8.209V9.786h0V25.1h0V36.98h0v2.871A10.28,10.28,0,0,0,20.2,46.438ZM24.31,34h0l.056-6.306V26.113h0v-10.7L21.608,12.6V47.79A9.2,9.2,0,0,0,24.254,49.2h.056V34Zm13.344,4.448a9.575,9.575,0,0,0-6.024-7.094,3.7,3.7,0,0,1,.957.676,5.146,5.146,0,0,1,1.745,3.885,5.214,5.214,0,0,1-5.18,5.236,4.361,4.361,0,0,1-3.266-1.351V49.76a9.932,9.932,0,0,0,4.279.113,9.567,9.567,0,0,0,6.813-5.4.427.427,0,0,0,.113-.225h0a10.116,10.116,0,0,0,.563-5.8m6.081-18.017a1.913,1.913,0,0,0,1.239-.338A1.475,1.475,0,0,0,45.2,18.4a1.176,1.176,0,0,0-.563-.45,1.533,1.533,0,0,0,.563-.45,1.2,1.2,0,0,0,.169-.676A1.135,1.135,0,0,0,45.2,16.2a1.518,1.518,0,0,0-.394-.45,3.879,3.879,0,0,0-.45-.169,2.992,2.992,0,0,0-.788-.056H41.032v4.9h2.7m-.113-4a1.124,1.124,0,0,1,.507.113.554.554,0,0,1,.169.45.639.639,0,0,1-.169.45c-.113.113-.282.113-.507.113H42.1V16.429ZM42.1,19.582V18.456h1.52a1.124,1.124,0,0,1,.507.113.554.554,0,0,1,.169.45.639.639,0,0,1-.169.45c-.113.113-.282.113-.507.113Zm5.18-4.054h-1.07v4.9h1.07Zm-.957-.45h.845v-.9h-.845Zm5.236,5.349v-.788H50.378a1.569,1.569,0,0,1-.563-.056.517.517,0,0,1-.338-.225.43.43,0,0,1-.113-.282c0-.113-.056-.338-.056-.619V15.585H48.295v2.928a3.528,3.528,0,0,0,.113.9,1.168,1.168,0,0,0,.338.563,1.458,1.458,0,0,0,.619.394,4.194,4.194,0,0,0,1.013.113H51.56ZM55.22,18.4v1.126H54.038a1.189,1.189,0,0,1-.9-.338,1.132,1.132,0,0,1-.225-.45,2.32,2.32,0,0,1-.056-.676,2.226,2.226,0,0,1,.282-1.239.987.987,0,0,1,.9-.394h2.2v-.845h-2.2a2.347,2.347,0,0,0-1.745.619,2.686,2.686,0,0,0-.563,1.914,2.111,2.111,0,0,0,.056.619c.056.169.056.338.113.507a2.02,2.02,0,0,0,.563.788,1.342,1.342,0,0,0,.619.338,3.674,3.674,0,0,0,.957.113h2.2V17.612H53.812v.845H55.22ZM58.2,15.528h-1.07v4.9H58.2Zm-.957-.45h.845v-.9h-.845ZM42.158,29.491h1.07v-4H44.8v-.845H40.581v.845h1.576v4Zm6.813-4.054v-.845H47.281a2.347,2.347,0,0,0-1.745.619,2.686,2.686,0,0,0-.563,1.914,2.111,2.111,0,0,0,.056.619c.056.169.056.338.113.507a2.02,2.02,0,0,0,.563.788,1.342,1.342,0,0,0,.619.338.835.835,0,0,0,.394.056H48.97v-.788H47.281A1.017,1.017,0,0,1,46.1,27.465H48.97V26.62H46.1a1.559,1.559,0,0,1,.056-.507.517.517,0,0,1,.225-.338,1.165,1.165,0,0,1,.845-.282H48.97Zm.845,4.054h1.013V27.07l1.858,2.421h1.295l-1.971-2.477,1.971-2.365H52.743l-1.914,2.308V24.593H49.815Zm4.5,0h1.07l-.056-3.716,2.083,3.716H58.6v-4.9h-1.07l.056,3.491-1.971-3.491H54.319Zm4.955-2.477a2.846,2.846,0,0,0,.619,1.971,3.1,3.1,0,0,0,3.716,0,2.691,2.691,0,0,0,.619-1.914,2.691,2.691,0,0,0-.619-1.914,2.542,2.542,0,0,0-1.858-.619,2.636,2.636,0,0,0-1.858.619,2.542,2.542,0,0,0-.619,1.858m2.421-1.689a1.2,1.2,0,0,1,1.013.394,2.092,2.092,0,0,1,.338,1.295,2.092,2.092,0,0,1-.338,1.295,1.5,1.5,0,0,1-2.027,0,2.165,2.165,0,0,1-.338-1.351,1.913,1.913,0,0,1,.338-1.239,1.5,1.5,0,0,1,1.013-.394m6.362,4.166v-.845H66.874a1.569,1.569,0,0,1-.563-.056.517.517,0,0,1-.338-.225.43.43,0,0,1-.113-.282c0-.113-.056-.338-.056-.619V24.593H64.791v2.928a3.528,3.528,0,0,0,.113.9,1.168,1.168,0,0,0,.338.563,1.458,1.458,0,0,0,.619.394,4.194,4.194,0,0,0,1.013.113Zm.169-2.477a2.846,2.846,0,0,0,.619,1.971,3.1,3.1,0,0,0,3.716,0,2.691,2.691,0,0,0,.619-1.914,2.691,2.691,0,0,0-.619-1.914,2.542,2.542,0,0,0-1.858-.619,2.636,2.636,0,0,0-1.858.619,2.542,2.542,0,0,0-.619,1.858m2.421-1.689a1.2,1.2,0,0,1,1.013.394A2.091,2.091,0,0,1,72,27.014a2.091,2.091,0,0,1-.338,1.295,1.5,1.5,0,0,1-2.027,0,2.165,2.165,0,0,1-.338-1.351,1.913,1.913,0,0,1,.338-1.239,1.619,1.619,0,0,1,1.013-.394m2.59,4.166h1.351a2.31,2.31,0,0,0,.619-.056c.169,0,.338-.056.45-.056a1.458,1.458,0,0,0,.619-.394,1.342,1.342,0,0,0,.338-.619,3.408,3.408,0,0,0,.113-.845V24.593h-1.07v2.7a1.764,1.764,0,0,1-.225,1.126,1.223,1.223,0,0,1-.9.282H73.349v.788Zm5.349-4.9h-1.07v4.9h1.07Zm-.9-.45h.845v-.9h-.845Zm5.123,5.349v-.845H81.626a1.569,1.569,0,0,1-.563-.056.517.517,0,0,1-.338-.225.43.43,0,0,1-.113-.282c0-.113-.056-.338-.056-.619V24.593H79.542v2.928a3.529,3.529,0,0,0,.113.9,1.168,1.168,0,0,0,.338.563,1.458,1.458,0,0,0,.619.394,4.194,4.194,0,0,0,1.013.113Zm4.223-4.054v-.845H85.342a2.347,2.347,0,0,0-1.745.619,2.686,2.686,0,0,0-.563,1.914,2.111,2.111,0,0,0,.056.619c.056.169.056.338.113.507a2.02,2.02,0,0,0,.563.788,1.342,1.342,0,0,0,.619.338.835.835,0,0,0,.394.056h2.252v-.788H85.342a1.017,1.017,0,0,1-1.182-1.182h2.871V26.62H84.159a1.559,1.559,0,0,1,.056-.507.517.517,0,0,1,.225-.338,1.165,1.165,0,0,1,.845-.282h1.745Zm.845,4.054h1.013V27.577h1.182l1.07,1.914h1.182l-1.239-2.027a1.1,1.1,0,0,0,.732-.45,1.535,1.535,0,0,0,.225-.9,1.376,1.376,0,0,0-.394-1.126,2.092,2.092,0,0,0-1.295-.338H87.819v4.842Zm2.308-4a2.206,2.206,0,0,1,.732.113.554.554,0,0,1,.169.45c0,.225-.056.394-.225.45-.113.113-.394.113-.732.113H88.889V25.381h1.295m3.829-.788h-1.07v4.9h1.07Zm-.9-.45h.845v-.9h-.845ZM43.565,38.556l2.027-4.9h-1.07L43,37.317l-1.464-3.66H40.356l2.139,4.9ZM49.533,34.5v-.845H47.844a2.347,2.347,0,0,0-1.745.619,2.686,2.686,0,0,0-.563,1.914,2.111,2.111,0,0,0,.056.619c.056.169.056.338.113.507a2.02,2.02,0,0,0,.563.788,1.342,1.342,0,0,0,.619.338.835.835,0,0,0,.394.056h2.252v-.845H47.844a1.017,1.017,0,0,1-1.182-1.182h2.871v-.845H46.662a1.559,1.559,0,0,1,.056-.507.517.517,0,0,1,.225-.338,1.165,1.165,0,0,1,.845-.282Zm4.617-.845H53.08v4.9h1.07Zm-.957-.45h.845v-.9h-.845Zm5.18,5.349v-.788H57.19a1.569,1.569,0,0,1-.563-.056.517.517,0,0,1-.338-.225.43.43,0,0,1-.113-.282c0-.113-.056-.338-.056-.619V33.714H55.107v2.928a3.528,3.528,0,0,0,.113.9,1.168,1.168,0,0,0,.338.563,1.458,1.458,0,0,0,.619.394,4.194,4.194,0,0,0,1.013.113h1.182ZM62.652,34.5v-.845H60.963a2.347,2.347,0,0,0-1.745.619,2.686,2.686,0,0,0-.563,1.914,2.111,2.111,0,0,0,.056.619c.056.169.056.338.113.507a2.02,2.02,0,0,0,.563.788,1.342,1.342,0,0,0,.619.338.835.835,0,0,0,.394.056h2.252v-.845H60.963a1.017,1.017,0,0,1-1.182-1.182h2.871v-.845H59.78a1.559,1.559,0,0,1,.056-.507.517.517,0,0,1,.225-.338,1.165,1.165,0,0,1,.845-.282Zm1.971,4.054h1.07v-4h1.576v-.845H63.046v.845h1.576v4Zm4.223-4.9h-1.07v4.9h1.07Zm-.957-.45h.845v-.9h-.845Zm6.081.45h-2.7A1.983,1.983,0,0,0,69.971,34a1.376,1.376,0,0,0-.394,1.126,1.253,1.253,0,0,0,.394,1.07,1.913,1.913,0,0,0,1.239.338h1.239a1.211,1.211,0,0,1,.563.113.554.554,0,0,1,.169.45.639.639,0,0,1-.169.45c-.113.113-.338.113-.619.113H69.8V38.5h2.759a2.092,2.092,0,0,0,1.295-.338,1.376,1.376,0,0,0,.394-1.126,1.433,1.433,0,0,0-.338-1.07,1.648,1.648,0,0,0-1.182-.338H71.379a.422.422,0,0,1-.282-.056.427.427,0,0,1-.225-.113.511.511,0,0,1-.169-.394.688.688,0,0,1,.169-.507.906.906,0,0,1,.619-.169h2.534v-.732Zm-2.815,6.25c.113,0,.169.056.282.056.056,0,.169.056.225.056h.394a.747.747,0,0,0,.563-.169.7.7,0,0,0,.225-.45.639.639,0,0,0-.169-.45.747.747,0,0,0-.563-.169h-.056v-.338h-.338v.676h.169a.422.422,0,0,1,.282.056c.056.056.113.056.113.169a.207.207,0,0,1-.056.169c-.056.056-.113.056-.225.056H71.66a2.09,2.09,0,0,1-.507-.113v.45Zm4.9-6.25h-1.07v4.9h1.07Zm-.957-.45h.845v-.9h-.845Zm1.971,5.349h1.07l-.113-3.829,1.295,3.829h1.07l1.239-3.772-.056,3.772h1.013v-4.9h-1.52l-1.239,3.716-1.239-3.716h-1.52ZM41.088,47.621H42.1V45.2l1.858,2.421h1.295l-1.971-2.477,1.971-2.365H44.016L42.1,45.143V42.722H41.088v4.9Zm4.56-4.9V45.65a3.728,3.728,0,0,0,.056.845.848.848,0,0,0,.225.45,1.715,1.715,0,0,0,.732.507,3.163,3.163,0,0,0,1.126.169,3.386,3.386,0,0,0,1.126-.169,1.714,1.714,0,0,0,.732-.507,1.061,1.061,0,0,0,.225-.507,3.728,3.728,0,0,0,.056-.845V42.722H48.914V45.65a1.408,1.408,0,0,1-.225.957,1.408,1.408,0,0,1-1.689,0,1.408,1.408,0,0,1-.225-.957V42.722Zm5.236,4.9H51.9V45.706H53.08l1.07,1.914h1.182l-1.239-2.027a1.1,1.1,0,0,0,.732-.45,1.535,1.535,0,0,0,.225-.9,1.376,1.376,0,0,0-.394-1.126,2.092,2.092,0,0,0-1.295-.338H50.828v4.842Zm2.252-4a2.206,2.206,0,0,1,.732.113.554.554,0,0,1,.169.45c0,.225-.056.394-.225.45-.113.113-.394.113-.732.113H51.842V43.511h1.295m2.815-.788V45.65a3.728,3.728,0,0,0,.056.845.848.848,0,0,0,.225.45,1.715,1.715,0,0,0,.732.507,3.163,3.163,0,0,0,1.126.169,3.386,3.386,0,0,0,1.126-.169,1.714,1.714,0,0,0,.732-.507,1.061,1.061,0,0,0,.225-.507,3.728,3.728,0,0,0,.056-.845V42.722H59.217V45.65a1.408,1.408,0,0,1-.225.957,1.408,1.408,0,0,1-1.689,0,1.408,1.408,0,0,1-.225-.957V42.722Zm5.236,4.9h1.07l-.113-3.829,1.295,3.829h1.07l1.239-3.772-.056,3.772h1.013v-4.9h-1.52l-1.239,3.716-1.239-3.716h-1.52v4.9Zm6.475-4.9V45.65a3.728,3.728,0,0,0,.056.845.848.848,0,0,0,.225.45,1.715,1.715,0,0,0,.732.507,3.163,3.163,0,0,0,1.126.169,3.386,3.386,0,0,0,1.126-.169,1.715,1.715,0,0,0,.732-.507,1.061,1.061,0,0,0,.225-.507,3.728,3.728,0,0,0,.056-.845V42.722H70.928V45.65a1.408,1.408,0,0,1-.225.957,1.408,1.408,0,0,1-1.689,0,1.408,1.408,0,0,1-.225-.957V42.722Z" transform="translate(-13.5 -5)" fill="#6c6c6c"/>
</svg>
